<svg width="15" height="9" viewBox="0 0 15 9" fill="none" xmlns="http://www.w3.org/2000/svg">
<path fill-rule="evenodd" clip-rule="evenodd" d="M7.58464 8.8244H8.448C8.448 8.8244 8.70879 8.79577 8.84194 8.65223C8.96449 8.52046 8.96057 8.273 8.96057 8.273C8.96057 8.273 8.9437 7.11453 9.48137 6.94394C10.0114 6.77589 10.692 8.06358 11.4134 8.5587C11.9589 8.93342 12.3734 8.85126 12.3734 8.85126L14.3023 8.8244C14.3023 8.8244 15.3114 8.76223 14.8329 7.96887C14.7937 7.90397 14.5543 7.38199 13.3988 6.3094C12.1893 5.18681 12.3513 5.36839 13.8082 3.42656C14.6955 2.24396 15.0502 1.52198 14.9394 1.21275C14.8337 0.91823 14.1811 0.996076 14.1811 0.996076L12.0093 1.00961C12.0093 1.00961 11.8483 0.987645 11.7289 1.05902C11.6122 1.12902 11.5371 1.29217 11.5371 1.29217C11.5371 1.29217 11.1934 2.2073 10.7349 2.98556C9.76785 4.62777 9.38117 4.71444 9.22313 4.61248C8.85547 4.37482 8.94723 3.65774 8.94723 3.14831C8.94723 1.55688 9.18861 0.893328 8.47722 0.721557C8.24113 0.664496 8.0674 0.626848 7.46365 0.620769C6.68872 0.61273 6.03282 0.623122 5.66143 0.805089C5.41436 0.926074 5.22377 1.19569 5.33985 1.21118C5.48338 1.2304 5.80849 1.29883 5.98085 1.53355C6.20341 1.8363 6.19557 2.51633 6.19557 2.51633C6.19557 2.51633 6.32342 4.38973 5.89693 4.62248C5.60417 4.78209 5.20259 4.4562 4.3404 2.96634C3.89862 2.20318 3.56508 1.35962 3.56508 1.35962C3.56508 1.35962 3.50077 1.20197 3.38606 1.11765C3.24683 1.01549 3.05232 0.982939 3.05232 0.982939L0.988519 0.996468C0.988519 0.996468 0.678704 1.0051 0.564975 1.13981C0.463794 1.25962 0.556935 1.50747 0.556935 1.50747C0.556935 1.50747 2.17268 5.2876 4.00216 7.19257C5.67967 8.9391 7.58464 8.8244 7.58464 8.8244Z" fill="#FFFDFB"/>
</svg>
